...Download...Seed...Enjoy
 
http://img853.imageshack.us/img853/7510/julaip.jpg

Complete name: Julai (2012) - 1CD DVDRip 700MB 5.1 Audio Team MG.mkv
Format : Matroska
Format version : Version 2
File size: 698 MiB
Duration : 2h 32mn
Overall bit rate : 641 Kbps
Movie name : Avidemux
Writing application: Lavf52.78.3
Writing library: Lavf52.78.3

Video
ID : 1
Format : AVC
Format/Info: Advanced Video Codec
Format profile : High@L2.1
Format settings, CABAC : Yes
Format settings, ReFrames: 3 frames
Codec ID : V_MPEG4/ISO/AVC
Duration : 2h 32mn
Bit rate : 510 Kbps
Width: 672 pixels
Height : 288 pixels
Display aspect ratio : 2.35:1
Frame rate mode: Constant
Frame rate : 23.976 fps
Color space: YUV
Chroma subsampling : 4:2:0
Bit depth: 8 bits
Scan type: Progressive
Bits/(Pixel*Frame) : 0.110
Stream size: 545 MiB (78%)
Writing library: x264 core 112
Encoding settings: cabac=1 / ref=3 / deblock=1:0:0 / analyse=0x3:0x113 / me=hex / subme=7 / psy=1 / psy_rd=1.00:0.00 / mixed_ref=1 / me_range=16 / chroma_me=1 / trellis=1 / 8x8dct=1 / cqm=0 / deadzone=21,11 / fast_pskip=1 / chroma_qp_offset=-2 / threads=12 / sliced_threads=0 / nr=0 / decimate=1 / interlaced=0 / constrained_intra=0 / bframes=3 / b_pyramid=1 / b_adapt=1 / b_bias=0 / direct=1 / weightb=1 / open_gop=0 / weightp=2 / keyint=250 / keyint_min=23 / scenecut=40 / intra_refresh=0 / rc_lookahead=40 / rc=abr / mbtree=1 / bitrate=510 / ratetol=1.0 / qcomp=0.60 / qpmin=10 / qpmax=51 / qpstep=4 / ip_ratio=1.40 / aq=1:1.00
Default: Yes
Forced : No

Audio
ID : 2
Format : AC-3
Format/Info: Audio Coding 3
Mode extension : CM (complete main)
Format settings, Endianness: Big
Codec ID : A_AC3
Duration : 2h 32mn
Bit rate mode: Constant
Bit rate : 128 Kbps
Channel(s) : 6 channels
Channel positions: Front: L C R, Side: L R, LFE
Sampling rate: 48.0 KHz
Bit depth: 16 bits
Compression mode : Lossy
Delay relative to video: -42ms
Stream size: 139 MiB (20%)
Default: Yes
Forced : No
 
http://imgur.com/ONMjl.jpg